<svg xmlns="http://www.w3.org/2000/svg" viewBox="0 0 32 32" width="24" height="24" style="fill: rgba(30, 144, 255, 1);"><path d="M18.828 13.973c-0.241-0.241-0.575-0.39-0.943-0.39s-0.701 0.149-0.943 0.39v0l-0.943 0.941c-0.486 0.502-1.165 0.814-1.918 0.814-1.473 0-2.667-1.194-2.667-2.667 0-0.753 0.312-1.433 0.813-1.917l0.001-0.001 7.507-7.509c0.578-0.137 1.241-0.216 1.922-0.216 4.786 0 8.667 3.88 8.667 8.667 0 2.159-0.79 4.134-2.096 5.651l0.010-0.011-2.811 2.847-6.6-6.6zM4.215 5.957c1.569-1.569 3.737-2.539 6.131-2.539 1.683 0 3.255 0.48 4.585 1.31l-0.037-0.021-4.551 4.552c-0.967 0.966-1.566 2.3-1.566 3.775 0 2.946 2.388 5.333 5.333 5.333 1.381 0 2.64-0.525 3.588-1.387l-0.004 0.004 0.192-0.183 5.657 5.656-5.657 5.657c-0.483 0.482-1.149 0.781-1.885 0.781s-1.403-0.298-1.885-0.781l-9.901-9.901c-1.568-1.568-2.538-3.735-2.538-6.128s0.97-4.56 2.538-6.128v0z"></path></svg>