<svg xmlns="http://www.w3.org/2000/svg" viewBox="0 0 32 32" width="24" height="24" style="fill: rgba(30, 144, 255, 1);"><path d="M12 25.333h4v-8.077l-5.333-4.651-5.333 4.651v8.077h4v-5.333h2.667v5.333zM28 28h-24c-0.736 0-1.333-0.597-1.333-1.333v0-10.017c0-0 0-0 0-0 0-0.4 0.176-0.759 0.456-1.004l0.002-0.001 4.876-4.252v-6.059c0-0.736 0.597-1.333 1.333-1.333v0h18.667c0.736 0 1.333 0.597 1.333 1.333v0 21.333c0 0.736-0.597 1.333-1.333 1.333v0zM21.333 14.667v2.667h2.667v-2.667h-2.667zM21.333 20v2.667h2.667v-2.667h-2.667zM21.333 9.333v2.667h2.667v-2.667h-2.667zM16 9.333v2.667h2.667v-2.667h-2.667z"></path></svg>