<svg xmlns="http://www.w3.org/2000/svg" viewBox="0 0 32 32" width="24" height="24" style="fill: rgba(30, 144, 255, 1);"><path d="M22.779 21.083c1.582-1.669 2.555-3.929 2.555-6.416 0-5.155-4.179-9.333-9.333-9.333s-9.333 4.179-9.333 9.333c0 2.487 0.973 4.747 2.559 6.42l-0.004-0.004c1.437-2.267 3.933-3.749 6.774-3.749 0.002 0 0.003 0 0.005 0h-0c0.001 0 0.003 0 0.004 0 2.842 0 5.337 1.483 6.755 3.717l0.019 0.033zM16 31.637l-8.485-8.485c-2.172-2.172-3.515-5.172-3.515-8.485 0-6.627 5.373-12 12-12s12 5.373 12 12c0 3.314-1.343 6.314-3.515 8.485l-8.485 8.485zM16 16c-2.209 0-4-1.791-4-4s1.791-4 4-4v0c2.209 0 4 1.791 4 4s-1.791 4-4 4v0z"></path></svg>